<?xml version="1.0" standalone="no"?><!DOCTYPE svg PUBLIC "-//W3C//DTD SVG 1.1//EN" "http://www.w3.org/Graphics/SVG/1.1/DTD/svg11.dtd"><svg t="1646228281074" class="icon" viewBox="0 0 1024 1024" version="1.1" xmlns="http://www.w3.org/2000/svg" p-id="1391" xmlns:xlink="http://www.w3.org/1999/xlink" width="200" height="200"><defs><style type="text/css"></style></defs><path d="M927 887H139c-11 0-20-9-20-20s9-20 20-20h788c11 0 20 9 20 20s-8.9 20-20 20z" fill="#4C6070" p-id="1392"></path><path d="M810 871c-11 0-20-9-20-20V409c0-11 9-20 20-20s20 9 20 20v442c0 11-9 20-20 20zM266 879c-11 0-20-9-20-20v-62.8c0-11 9-20 20-20s20 9 20 20V859c0 11-9 20-20 20zM719.3 871c-11 0-20-9-20-20V603.5c0-11 9-20 20-20s20 9 20 20V851c0 11-8.9 20-20 20zM628.7 879c-11 0-20-9-20-20V657.9c0-11 9-20 20-20s20 9 20 20V859c0 11-9 20-20 20zM538 871c-11 0-20-9-20-20V630c0-11 9-20 20-20s20 9 20 20v221c0 11-9 20-20 20zM356.7 871c-11 0-20-9-20-20V710c0-11 9-20 20-20s20 9 20 20v141c0 11-9 20-20 20zM447.3 857.7c-11 0-20-9-20-20V578.8c0-11 9-20 20-20s20 9 20 20v258.9c0 11.1-8.9 20-20 20z" fill="#4C6070" p-id="1393"></path><path d="M265.6 638.6m-28.6 0a28.6 28.6 0 1 0 57.2 0 28.6 28.6 0 1 0-57.2 0Z" fill="#FFBD5C" p-id="1394"></path><path d="M265.6 570c-37.8 0-68.6 30.8-68.6 68.6s30.8 68.6 68.6 68.6 68.6-30.8 68.6-68.6-30.7-68.6-68.6-68.6z m0 97.2c-15.8 0-28.6-12.8-28.6-28.6s12.8-28.6 28.6-28.6 28.6 12.8 28.6 28.6-12.8 28.6-28.6 28.6z" fill="#4C6070" p-id="1395"></path><path d="M445.6 448.6m-28.6 0a28.6 28.6 0 1 0 57.2 0 28.6 28.6 0 1 0-57.2 0Z" fill="#FFBD5C" p-id="1396"></path><path d="M445.6 380c-37.8 0-68.6 30.8-68.6 68.6s30.8 68.6 68.6 68.6 68.6-30.8 68.6-68.6-30.7-68.6-68.6-68.6z m0 97.2c-15.8 0-28.6-12.8-28.6-28.6s12.8-28.6 28.6-28.6 28.6 12.8 28.6 28.6-12.8 28.6-28.6 28.6z" fill="#4C6070" p-id="1397"></path><path d="M625.6 508.6m-28.6 0a28.6 28.6 0 1 0 57.2 0 28.6 28.6 0 1 0-57.2 0Z" fill="#FFBD5C" p-id="1398"></path><path d="M625.6 440c-37.8 0-68.6 30.8-68.6 68.6s30.8 68.6 68.6 68.6 68.6-30.8 68.6-68.6-30.7-68.6-68.6-68.6z m0 97.2c-15.8 0-28.6-12.8-28.6-28.6s12.8-28.6 28.6-28.6 28.6 12.8 28.6 28.6-12.8 28.6-28.6 28.6z" fill="#4C6070" p-id="1399"></path><path d="M805.6 268.6m-28.6 0a28.6 28.6 0 1 0 57.2 0 28.6 28.6 0 1 0-57.2 0Z" fill="#FFBD5C" p-id="1400"></path><path d="M805.6 200c-37.8 0-68.6 30.8-68.6 68.6s30.8 68.6 68.6 68.6 68.6-30.8 68.6-68.6-30.7-68.6-68.6-68.6z m0 97.2c-15.8 0-28.6-12.8-28.6-28.6s12.8-28.6 28.6-28.6 28.6 12.8 28.6 28.6-12.8 28.6-28.6 28.6z" fill="#4C6070" p-id="1401"></path><path d="M299.2 623.5c-4.6 0-9.2-1.6-13-4.8-8.4-7.2-9.4-19.8-2.2-28.2L381.8 476c7.2-8.4 19.8-9.4 28.2-2.2 8.4 7.2 9.4 19.8 2.2 28.2l-97.8 114.5c-3.9 4.6-9.6 7-15.2 7zM577 528.6c-2.4 0-4.8-0.4-7.1-1.3l-90-34.4c-10.3-3.9-15.5-15.5-11.5-25.8 3.9-10.3 15.5-15.5 25.8-11.5l90 34.4c10.3 3.9 15.5 15.5 11.5 25.8-3.1 7.9-10.7 12.8-18.7 12.8zM662.5 496.9c-4 0-8-1.2-11.5-3.6-9-6.3-11.2-18.8-4.9-27.9l117.3-167.1c6.3-9 18.8-11.2 27.9-4.9 9 6.3 11.2 18.8 4.9 27.9L678.8 488.4c-3.9 5.6-10.1 8.5-16.3 8.5zM135 886.6c-11 0-20-9-20-20v-668c0-11 9-20 20-20s20 9 20 20v668.1c0 11-9 19.9-20 19.9z" fill="#4C6070" p-id="1402"></path></svg>